<?xml version="1.0" encoding="UTF-8" standalone="no"?><!DOCTYPE svg PUBLIC "-//W3C//DTD SVG 1.1//EN" "http://www.w3.org/Graphics/SVG/1.1/DTD/svg11.dtd"><svg width="100%" height="100%" viewBox="0 0 1154 1962" version="1.1" xmlns="http://www.w3.org/2000/svg" xmlns:xlink="http://www.w3.org/1999/xlink" xml:space="preserve" xmlns:serif="http://www.serif.com/" style="fill-rule:evenodd;clip-rule:evenodd;stroke-linejoin:round;stroke-miterlimit:2;"><g id="Logo-01:-600-x-600-px" serif:id="Logo 01: 600 x 600 px"><path d="M435.888,1215.08c-66.4,-29.241 -113.508,-64.858 -143.079,-90.787c-35.337,-30.984 -58.521,-59.438 -68.271,-71.9c-21,-26.842 -49.446,-63.2 -68.996,-117.659c-24.695,-68.783 -22.216,-130.27 -18.158,-164.141c8.433,-70.409 35.433,-119.454 54.471,-153.246c32.492,-57.671 49.683,-61.854 101.679,-130.733c23.217,-30.755 71.533,-95.546 111.85,-187.384c36.567,-83.3 52.296,-156.375 62.463,-204.812c8.012,-38.192 12.916,-70.679 15.975,-94.417c126.112,72.738 290.537,195.138 413.987,392.196c58.154,92.829 116.888,189.308 120.563,328.283c4.55,172.171 -78.396,296.884 -101.684,329.733c-58.229,82.155 -126.454,130.275 -168.496,155.425c26.871,-80.858 53.746,-161.72 80.617,-242.579c11.208,-41.945 23.142,-110.912 6.538,-191.741c-18.834,-91.663 -64.763,-151.825 -100.23,-198.275c-28.541,-37.384 -75.258,-90.067 -145.983,-139.446c-20.783,91.825 -53.45,156.854 -78.437,198.275c-73.788,122.308 -142.396,141.183 -172.13,250.567c-21.72,79.904 -6.4,148.158 0,172.133c22.688,84.979 73.396,138.262 97.321,160.508" style="fill:#78c288;fill-rule:nonzero;"/><path d="M1153.35,1258.27c-0.121,30.396 -2.642,60.492 -7.508,90.104l-1138.39,0c-4.688,-28.712 -7.208,-57.908 -7.45,-87.341l576.675,-4.925l576.675,2.162Z" style="fill:#6f6db2;fill-rule:nonzero;"/><path d="M822.694,1907.15c-155.163,72.567 -336.934,72.567 -492.038,0l492.038,0Z" style="fill:#6f6db2;fill-rule:nonzero;"/><path d="M1145.87,1373.14c-4.687,29.495 -11.775,58.45 -21.025,86.683l-1096.28,-0c-9.25,-28.233 -16.338,-57.188 -21.084,-86.683l1138.39,-0Z" style="fill:#6f6db2;fill-rule:nonzero;"/><path d="M1124.82,1481.27c-9.734,29.854 -21.867,58.87 -36.405,86.741l-1023.54,0c-14.475,-27.871 -26.671,-56.887 -36.342,-86.741l1096.28,-0Z" style="fill:#6f6db2;fill-rule:nonzero;"/><path d="M200.125,1801.85l753.1,0c-40.187,34.658 -84.158,62.775 -130.533,84.4l-492.034,0c-46.375,-21.625 -90.345,-49.742 -130.533,-84.4Z" style="fill:#6f6db2;fill-rule:nonzero;"/><path d="M1088.47,1588.91c-15.68,30.395 -34.18,59.408 -55.325,86.741l-912.888,0c-21.146,-27.333 -39.646,-56.346 -55.383,-86.741l1023.6,-0Z" style="fill:#6f6db2;fill-rule:nonzero;"/><path d="M1033.12,1696.55c-14.896,19.404 -31.175,37.904 -48.658,55.383c-10.15,10.155 -20.604,19.825 -31.296,29.017l-752.979,0c-10.696,-9.192 -21.146,-18.862 -31.3,-29.017c-17.479,-17.479 -33.696,-35.979 -48.654,-55.383l912.887,0Z" style="fill:#6f6db2;fill-rule:nonzero;"/></g></svg>